<?xml version="1.0" encoding="UTF-8" standalone="no"?>
<!DOCTYPE svg PUBLIC "-//W3C//DTD SVG 1.1//EN" "http://www.w3.org/Graphics/SVG/1.1/DTD/svg11.dtd">
<svg width="100%" height="100%" viewBox="0 0 256 256" version="1.1" xmlns="http://www.w3.org/2000/svg" xmlns:xlink="http://www.w3.org/1999/xlink" xml:space="preserve" xmlns:serif="http://www.serif.com/" style="fill-rule:evenodd;clip-rule:evenodd;stroke-linejoin:round;stroke-miterlimit:2;">
    <g>
        <rect x="-1.126" y="0" width="257.471" height="256" style="fill:white;"/>
        <g id="ðŸ“">
            <g opacity="0.1">
                <path d="M196.053,243.504C196.053,248.75 191.795,253.008 186.549,253.008L26.504,253.008C21.259,253.008 17,248.75 17,243.504C17,238.259 21.259,234 26.504,234L186.549,234C191.795,234 196.053,238.259 196.053,243.504Z"/>
                <path d="M233,233.503C233,238.749 228.741,243.007 223.496,243.007L185.504,243.007C180.259,243.007 176,238.749 176,233.503C176,228.258 180.259,223.999 185.504,223.999L223.496,223.999C228.741,223.999 233,228.258 233,233.503Z"/>
                <path d="M194.428,248.818C194.428,248.818 198.053,242.56 206.271,243.007C205.387,237.272 201.861,242.252 201.861,242.252L195.653,242.755L191.996,248.326L194.428,248.818Z"/>
            </g>
            <g>
                <path d="M216.83,235C222.447,235 227.007,230.44 227.007,224.823L227.007,23.177C227.007,17.56 222.447,13 216.83,13L67.56,13C61.943,13 57.383,17.56 57.383,23.177L57.383,224.823C57.383,230.44 61.943,235 67.56,235L216.83,235Z" style="fill:rgb(246,99,155);"/>
                <path d="M209.949,95C224.884,95 237.009,82.875 237.009,67.94L237.009,23.348C237.009,17.637 232.372,13 226.661,13L59.376,13C53.945,13 49.536,17.409 49.536,22.84L49.536,85.16C49.536,90.591 53.945,95 59.376,95L209.949,95Z" style="fill:rgb(246,99,155);"/>
            </g>
            <g>
                <path d="M209.18,220.953L186.82,220.953C185.816,220.953 185,220.137 185,219.133L185,28.865C185,27.861 185.816,27.045 186.82,27.045L209.18,27.045C210.184,27.045 211,27.861 211,28.865L211,219.133C211,220.137 210.184,220.953 209.18,220.953Z" style="fill:white;"/>
                <path d="M202,220.953L202,27.045L204,27.045L204,220.953L202,220.953Z" style="fill:rgb(233,233,233);"/>
                <path d="M200.18,224L177.82,224C176.816,224 176,223.184 176,222.18L176,25.82C176,24.816 176.816,24 177.82,24L200.18,24C201.184,24 202,24.816 202,25.82L202,222.18C202,223.184 201.184,224 200.18,224Z" style="fill:white;"/>
            </g>
            <path d="M181.736,245.007C187.399,245.007 191.996,240.41 191.996,234.748L191.996,13.267C191.996,7.605 187.399,3.007 181.736,3.007L31.26,3.007C25.597,3.007 21,7.605 21,13.267L21,234.748C21,240.41 25.597,245.007 31.26,245.007L181.736,245.007Z" style="fill:rgb(246,99,155);"/>
        </g>
    </g>
</svg>
