<?xml version="1.0" encoding="UTF-8" standalone="no"?>
<!DOCTYPE svg PUBLIC "-//W3C//DTD SVG 1.1//EN" "http://www.w3.org/Graphics/SVG/1.1/DTD/svg11.dtd">
<svg width="100%" height="100%" viewBox="0 0 256 256" version="1.1" xmlns="http://www.w3.org/2000/svg" xmlns:xlink="http://www.w3.org/1999/xlink" xml:space="preserve" xmlns:serif="http://www.serif.com/" style="fill-rule:evenodd;clip-rule:evenodd;stroke-linejoin:round;stroke-miterlimit:2;">
    <g>
        <rect x="0" y="-0" width="256" height="256" style="fill:white;"/>
        <g id="ðŸ“">
            <path d="M254.999,239.652C254.999,234.953 251.184,231.139 246.486,231.139L9.514,231.139C4.816,231.139 1.001,234.953 1.001,239.652C1.001,244.35 4.816,248.164 9.514,248.164L246.486,248.164C251.184,248.164 254.999,244.35 254.999,239.652Z" style="fill-opacity:0.1;"/>
            <g>
                <path d="M99,65.065C99,48.473 85.529,35.002 68.937,35.002L20.48,35.002C18.008,35.002 16,37.01 16,39.483L16,83.391C16,85.864 18.008,87.872 20.48,87.872L94.52,87.872C96.992,87.872 99,85.864 99,83.391L99,65.065Z" style="fill:rgb(246,99,155);"/>
                <path d="M240,57.48C240,55.007 237.992,53 235.52,53L20.48,53C18.008,53 16,55.007 16,57.48L16,85.259C16,87.732 18.008,89.74 20.48,89.74L235.52,89.74C237.992,89.74 240,87.732 240,85.259L240,57.48Z" style="fill:rgb(246,99,155);"/>
            </g>
            <g>
                <path d="M223.983,68.82L223.983,91.18C223.983,92.184 223.168,93 222.163,93L33.835,93C32.83,93 32.015,92.184 32.015,91.18L32.015,68.82C32.015,67.816 32.83,67 33.835,67L222.163,67C223.168,67 223.983,67.816 223.983,68.82Z" style="fill:white;"/>
                <rect x="32" y="74" width="191.968" height="2" style="fill:rgb(233,233,233);"/>
                <path d="M227,77.82L227,100.18C227,101.184 226.184,102 225.18,102L30.82,102C29.816,102 29,101.184 29,100.18L29,77.82C29,76.816 29.816,76 30.82,76L225.18,76C226.184,76 227,76.816 227,77.82Z" style="fill:white;"/>
            </g>
            <path d="M251,89.422C251,86.964 249.004,84.968 246.545,84.968L9.455,84.968C6.996,84.968 5,86.964 5,89.422L5,235.538C5,237.997 6.996,239.993 9.455,239.993L246.545,239.993C249.004,239.993 251,237.997 251,235.538L251,89.422Z" style="fill:rgb(246,99,155);"/>
        </g>
    </g>
</svg>
