<?xml version="1.0" encoding="UTF-8" standalone="no"?>
<!DOCTYPE svg PUBLIC "-//W3C//DTD SVG 1.1//EN" "http://www.w3.org/Graphics/SVG/1.1/DTD/svg11.dtd">
<svg width="100%" height="100%" viewBox="0 0 256 256" version="1.1" xmlns="http://www.w3.org/2000/svg" xmlns:xlink="http://www.w3.org/1999/xlink" xml:space="preserve" xmlns:serif="http://www.serif.com/" style="fill-rule:evenodd;clip-rule:evenodd;stroke-linejoin:round;stroke-miterlimit:2;">
    <g>
        <rect x="0" y="0" width="256" height="256" style="fill:white;"/>
        <g id="ðŸ“">
            <path d="M255,238.5C255,233.257 250.743,229 245.5,229L10.5,229C5.257,229 1,233.257 1,238.5C1,243.743 5.257,248 10.5,248L245.5,248C250.743,248 255,243.743 255,238.5Z" style="fill-opacity:0.1;"/>
            <g>
                <path d="M99,49.549C99,31.033 83.967,16 65.451,16L21,16C18.24,16 16,18.24 16,21L16,70C16,72.76 18.24,75 21,75L94,75C96.76,75 99,72.76 99,70L99,49.549Z" style="fill:rgb(246,99,155);"/>
                <path d="M240,40C240,37.24 237.76,35 235,35L21,35C18.24,35 16,37.24 16,40L16,71C16,73.76 18.24,76 21,76L235,76C237.76,76 240,73.76 240,71L240,40Z" style="fill:rgb(246,99,155);"/>
            </g>
            <g>
                <path d="M223.983,49.82L223.983,72.18C223.983,73.184 223.168,74 222.163,74L33.835,74C32.83,74 32.015,73.184 32.015,72.18L32.015,49.82C32.015,48.816 32.83,48 33.835,48L222.163,48C223.168,48 223.983,48.816 223.983,49.82Z" style="fill:white;"/>
                <rect x="32" y="55" width="191.968" height="2" style="fill:rgb(233,233,233);"/>
                <path d="M227,58.82L227,81.18C227,82.184 226.184,83 225.18,83L30.82,83C29.816,83 29,82.184 29,81.18L29,58.82C29,57.816 29.816,57 30.82,57L225.18,57C226.184,57 227,57.816 227,58.82Z" style="fill:white;"/>
            </g>
            <path d="M251,71.971C251,69.228 248.772,67 246.029,67L9.971,67C7.228,67 5,69.228 5,71.971L5,235.029C5,237.772 7.228,240 9.971,240L246.029,240C248.772,240 251,237.772 251,235.029L251,71.971Z" style="fill:rgb(246,99,155);"/>
        </g>
    </g>
</svg>
