<?xml version="1.0" encoding="UTF-8" standalone="no"?>
<!DOCTYPE svg PUBLIC "-//W3C//DTD SVG 1.1//EN" "http://www.w3.org/Graphics/SVG/1.1/DTD/svg11.dtd">
<svg width="100%" height="100%" viewBox="0 0 256 256" version="1.1" xmlns="http://www.w3.org/2000/svg" xmlns:xlink="http://www.w3.org/1999/xlink" xml:space="preserve" xmlns:serif="http://www.serif.com/" style="fill-rule:evenodd;clip-rule:evenodd;stroke-linejoin:round;stroke-miterlimit:2;">
    <g>
        <rect x="0" y="0" width="256" height="256" style="fill:white;"/>
        <g id="ðŸ“">
            <path d="M255,238.5C255,233.257 250.743,229 245.5,229L10.5,229C5.257,229 1,233.257 1,238.5C1,243.743 5.257,248 10.5,248L245.5,248C250.743,248 255,243.743 255,238.5Z" style="fill-opacity:0.1;"/>
            <g>
                <path d="M240,45.431C240,39.669 235.322,34.991 229.56,34.991L26.44,34.991C20.678,34.991 16,39.669 16,45.431L16,198.551C16,204.313 20.678,208.991 26.44,208.991L229.56,208.991C235.322,208.991 240,204.313 240,198.551L240,45.431Z" style="fill:rgb(246,99,155);"/>
                <path d="M99.113,43.42C99.113,28.287 86.827,16 71.693,16L26.418,16C20.668,16 16,20.668 16,26.418L16,198.017C16,203.522 20.469,207.991 25.974,207.991L89.14,207.991C94.644,207.991 99.113,203.522 99.113,198.017L99.113,43.42Z" style="fill:rgb(246,99,155);"/>
            </g>
            <g>
                <path d="M223.983,49.82L223.983,72.18C223.983,73.184 223.168,74 222.163,74L33.835,74C32.83,74 32.015,73.184 32.015,72.18L32.015,49.82C32.015,48.816 32.83,48 33.835,48L222.163,48C223.168,48 223.983,48.816 223.983,49.82Z" style="fill:white;"/>
                <rect x="32" y="55" width="191.968" height="2" style="fill:rgb(233,233,233);"/>
                <path d="M227,58.82L227,81.18C227,82.184 226.184,83 225.18,83L30.82,83C29.816,83 29,82.184 29,81.18L29,58.82C29,57.816 29.816,57 30.82,57L225.18,57C226.184,57 227,57.816 227,58.82Z" style="fill:white;"/>
            </g>
            <path d="M251,77.38C251,71.651 246.349,67 240.62,67L15.38,67C9.651,67 5,71.651 5,77.38L5,229.62C5,235.349 9.651,240 15.38,240L240.62,240C246.349,240 251,235.349 251,229.62L251,77.38Z" style="fill:rgb(246,99,155);"/>
        </g>
    </g>
</svg>
