<?xml version="1.0" encoding="UTF-8" standalone="no"?>
<!DOCTYPE svg PUBLIC "-//W3C//DTD SVG 1.1//EN" "http://www.w3.org/Graphics/SVG/1.1/DTD/svg11.dtd">
<svg width="100%" height="100%" viewBox="0 0 256 256" version="1.1" xmlns="http://www.w3.org/2000/svg" xmlns:xlink="http://www.w3.org/1999/xlink" xml:space="preserve" xmlns:serif="http://www.serif.com/" style="fill-rule:evenodd;clip-rule:evenodd;stroke-linejoin:round;stroke-miterlimit:2;">
    <g>
        <rect x="0" y="-0" width="256" height="256" style="fill:white;"/>
        <g id="ðŸ“">
            <path d="M254.999,239.652C254.999,234.953 251.184,231.139 246.486,231.139L9.514,231.139C4.816,231.139 1.001,234.953 1.001,239.652C1.001,244.35 4.816,248.164 9.514,248.164L246.486,248.164C251.184,248.164 254.999,244.35 254.999,239.652Z" style="fill-opacity:0.1;"/>
            <g>
                <path d="M240,62.351C240,57.188 235.808,52.996 230.645,52.996L25.355,52.996C20.192,52.996 16,57.188 16,62.351L16,199.558C16,204.721 20.192,208.913 25.355,208.913L230.645,208.913C235.808,208.913 240,204.721 240,199.558L240,62.351Z" style="fill:rgb(246,99,155);"/>
                <path d="M99.113,62.43C99.113,47.296 86.827,35.01 71.693,35.01L25.974,35.01C20.469,35.01 16,39.479 16,44.983L16,197.075C16,202.579 20.469,207.048 25.974,207.048L89.14,207.048C94.644,207.048 99.113,202.579 99.113,197.075L99.113,62.43Z" style="fill:rgb(246,99,155);"/>
            </g>
            <g>
                <path d="M223.983,68.82L223.983,91.18C223.983,92.184 223.168,93 222.163,93L33.835,93C32.83,93 32.015,92.184 32.015,91.18L32.015,68.82C32.015,67.816 32.83,67 33.835,67L222.163,67C223.168,67 223.983,67.816 223.983,68.82Z" style="fill:white;"/>
                <rect x="32" y="74" width="191.968" height="2" style="fill:rgb(233,233,233);"/>
                <path d="M227,77.82L227,100.18C227,101.184 226.184,102 225.18,102L30.82,102C29.816,102 29,101.184 29,100.18L29,77.82C29,76.816 29.816,76 30.82,76L225.18,76C226.184,76 227,76.816 227,77.82Z" style="fill:white;"/>
            </g>
            <path d="M251,94.276C251,89.142 246.832,84.975 241.699,84.975L14.301,84.975C9.168,84.975 5,89.142 5,94.276L5,230.695C5,235.828 9.168,239.996 14.301,239.996L241.699,239.996C246.832,239.996 251,235.828 251,230.695L251,94.276Z" style="fill:rgb(246,99,155);"/>
        </g>
    </g>
</svg>
