<?xml version="1.0" encoding="UTF-8" standalone="no"?>
<!DOCTYPE svg PUBLIC "-//W3C//DTD SVG 1.1//EN" "http://www.w3.org/Graphics/SVG/1.1/DTD/svg11.dtd">
<svg width="100%" height="100%" viewBox="0 0 256 256" version="1.1" xmlns="http://www.w3.org/2000/svg" xmlns:xlink="http://www.w3.org/1999/xlink" xml:space="preserve" xmlns:serif="http://www.serif.com/" style="fill-rule:evenodd;clip-rule:evenodd;stroke-linejoin:round;stroke-miterlimit:2;">
    <g>
        <rect x="-1" y="0" width="256" height="256" style="fill:white;"/>
        <g id="ðŸ“">
            <g opacity="0.1">
                <path d="M197.053,243.504C197.053,248.75 192.795,253.008 187.549,253.008L26.504,253.008C21.259,253.008 17,248.75 17,243.504C17,238.259 21.259,234 26.504,234L187.549,234C192.795,234 197.053,238.259 197.053,243.504Z"/>
                <path d="M234,233.503C234,238.749 229.741,243.007 224.496,243.007L186.504,243.007C181.259,243.007 177,238.749 177,233.503C177,228.258 181.259,223.999 186.504,223.999L224.496,223.999C229.741,223.999 234,228.258 234,233.503Z"/>
                <path d="M195.428,248.818C195.428,248.818 199.053,242.56 207.271,243.007C206.387,237.272 202.861,242.252 202.861,242.252L196.653,242.755L192.996,248.326L195.428,248.818Z"/>
            </g>
            <g>
                <path d="M206.185,95C223.194,95 237.004,81.19 237.004,64.18L237.004,17.593C237.004,15.058 234.946,13 232.411,13L187.398,13C184.863,13 182.805,15.058 182.805,17.593L182.805,90.407C182.805,92.942 184.863,95 187.398,95L206.185,95Z" style="fill:rgb(246,99,155);"/>
                <path d="M222.437,80C224.957,80 227.004,82.046 227.004,84.566L227.004,230.434C227.004,232.954 224.957,235 222.437,235L176.126,235C173.606,235 171.56,232.954 171.56,230.434L171.56,84.566C171.56,82.046 173.606,80 176.126,80L222.437,80Z" style="fill:rgb(246,99,155);"/>
            </g>
            <g>
                <path d="M209.18,220.953L186.82,220.953C185.816,220.953 185,220.137 185,219.133L185,28.865C185,27.861 185.816,27.045 186.82,27.045L209.18,27.045C210.184,27.045 211,27.861 211,28.865L211,219.133C211,220.137 210.184,220.953 209.18,220.953Z" style="fill:white;"/>
                <path d="M202,220.953L202,27.045L204,27.045L204,220.953L202,220.953Z" style="fill:rgb(233,233,233);"/>
                <path d="M200.18,224L177.82,224C176.816,224 176,223.184 176,222.18L176,25.82C176,24.816 176.816,24 177.82,24L200.18,24C201.184,24 202,24.816 202,25.82L202,222.18C202,223.184 201.184,224 200.18,224Z" style="fill:white;"/>
            </g>
            <path d="M187.082,245C189.794,245 191.996,242.798 191.996,240.086L191.996,7.914C191.996,5.202 189.794,3 187.082,3L25.914,3C23.202,3 21,5.202 21,7.914L21,240.086C21,242.798 23.202,245 25.914,245L187.082,245Z" style="fill:rgb(246,99,155);"/>
        </g>
    </g>
</svg>
